<svg width="42" height="44" viewBox="0 0 42 44" fill="none" xmlns="http://www.w3.org/2000/svg">
<path d="M21.1904 21.453V42.0982L39.3155 32.6363C39.4525 32.5627 39.5386 32.4205 39.5405 32.265V11.8335L21.1904 21.453Z" fill="#F2F2F2"/>
<path d="M33.2404 7.94019L15.0815 17.3346L20.4482 20.1473L38.6408 10.6291L33.2404 7.94019V7.94019Z" fill="#F2F2F2"/>
<path d="M14.3275 26.5608C14.3273 26.8199 14.196 27.0612 13.9787 27.2021C13.7519 27.3305 13.4743 27.3305 13.2474 27.2021L7.34073 24.0519C7.09756 23.9197 6.94639 23.6649 6.94695 23.3881V14.7587L1.32153 11.8335V32.4788L19.6716 42.0982V21.453L14.2825 18.629L14.3275 26.5608Z" fill="#F2F2F2"/>
<path d="M25.6571 4.17048L20.448 1.57153L2.2666 10.6285L7.6895 13.4637L25.6571 4.17048V4.17048Z" fill="#F2F2F2"/>
<path d="M21.1003 42.6035C20.4507 42.6062 19.8838 42.1636 19.7288 41.5328C19.5737 40.9019 19.8709 40.247 20.4478 39.9483L36.199 31.7239C36.6914 31.4588 36.9983 30.9444 36.9978 30.3851V13.0588C37.0631 12.3277 37.6757 11.7673 38.4098 11.7673C39.1438 11.7673 39.7564 12.3277 39.8217 13.0588V32.0839C39.8221 32.6522 39.5052 33.1731 39.0004 33.434L21.7529 42.4347C21.5524 42.5435 21.3284 42.6014 21.1003 42.6035Z" fill="#E0E0E0"/>
<path fill-rule="evenodd" clip-rule="evenodd" d="M40.9581 10.3361C40.9251 10.2545 40.8796 10.1786 40.8231 10.1111C40.7749 10.0569 40.7178 10.0112 40.6544 9.97607L20.7741 0.0753354C20.5722 -0.0251118 20.3348 -0.0251118 20.1328 0.0753354L0.29761 9.94232C0.228992 9.98862 0.16822 10.0456 0.117597 10.1111C0.0738831 10.171 0.036197 10.235 0.00508845 10.3023V10.3586C-0.00169615 10.4297 -0.00169615 10.5013 0.00508845 10.5724V32.939C0.00674529 33.2182 0.162593 33.4736 0.410119 33.6028L20.1216 43.9873H20.1778C20.2708 44.0042 20.3661 44.0042 20.4591 43.9873C20.5484 44.0031 20.6398 44.0031 20.7291 43.9873L40.6094 33.5803C40.8569 33.4511 41.0127 33.1957 41.0144 32.9165V10.6061C41.0112 10.5136 40.9922 10.4222 40.9581 10.3361ZM31.5865 7.11846L13.4727 16.4904L9.29861 14.3077L27.3 4.99205L31.5865 7.11846ZM12.8534 25.3223V17.8517L8.42059 15.534V22.9708L10.547 24.0959L12.8534 25.3223ZM20.4593 1.57151L25.6572 4.1592L7.68962 13.5086L2.26672 10.6734L20.4593 1.57151ZM1.36638 32.4773L19.7165 42.0742L19.7615 21.4514L14.3723 18.6162V26.5818C14.3721 26.8408 14.2409 27.0822 14.0236 27.2231C13.7967 27.3515 13.5191 27.3515 13.2923 27.2231L7.38558 24.0729C7.14241 23.9407 6.99124 23.6859 6.9918 23.4091V14.7572L1.36638 11.832V32.4773ZM20.4593 20.1471L15.0814 17.3344L33.2853 7.93996L38.6857 10.6289L20.4593 20.1471ZM39.3605 32.601C39.4974 32.5274 39.5836 32.3852 39.5855 32.2297L39.5405 11.832L21.1904 21.4514V42.0967L39.3605 32.601Z" fill="#1A1A1A"/>
<path d="M9.29858 14.3076L27.3112 4.99194L31.5865 7.11835L13.4726 16.4903L9.29858 14.3076V14.3076Z" fill="#FF8C8C"/>
<path d="M8.42114 22.96V15.5344L12.854 17.8521V25.3227L10.5476 24.0963L8.42114 22.96V22.96Z" fill="#FF8C8C"/>
</svg>
